Simulation
nRows=16
nColumns=15
endheader
time  TH_x TH_y TH_z SC_y  SC_z  SC_x  AC_y  AC_z  AC_x  GH_y  GH_z  GH_yy  EL_x  PS_y
0.75  0.000000  0.000000  0.000000  -33.84441342672418  2.041914628375307  19.98338839314294  61.015701878748665  2.158442325768476  -12.880864309371686  20.498565011687393  45.44419673270271  -17.413739183070344  19.944580032449586  0.000000
0.765  0.000000  0.000000  0.000000  -34.00975822017043  2.1841119471640464  20.23365349284101  61.11778579914781  2.544946437166355  -12.79249589573134  20.57278716597125  45.95013438200617  -17.74844713645329  19.74142518486096  0.000000
0.78  0.000000  0.000000  0.000000  -34.18584253560394  2.3316179602872844  20.491229736027464  61.22152754299519  2.9224176978781657  -12.691341666479328  20.654148399176137  46.44051192460236  -18.082327967436882  19.537105414819347  0.000000
0.7949999999999999  0.000000  0.000000  0.000000  -34.373644172166834  2.4837529223354284  20.756761707927694  61.328731208274625  3.288771831528421  -12.576647647216442  20.741597115229318  46.91538916077014  -18.415630130536492  19.331703142551326  0.000000
0.8099999999999999  0.000000  0.000000  0.000000  -34.574314518949244  2.639883072215002  21.030897449052286  61.44107212310529  3.641658390867123  -12.447834041744745  20.83430048571606  47.37509621975816  -18.748311422145985  19.125546253639037  0.000000
0.825  0.000000  0.000000  0.000000  -34.78891801044898  2.799193152387132  21.314254092972988  61.5600603558763  3.9789757546920126  -12.304589357720962  20.93162595626457  47.81990494104468  -19.080203271295066  18.919160135503887  0.000000
0.84  0.000000  0.000000  0.000000  -35.01749678213091  2.960691703830853  21.606976985966377  61.686845099785145  4.299175597576362  -12.147279206775249  21.03273238891326  48.250276052991325  -19.41130679259517  18.712915359796686  0.000000
0.855  0.000000  0.000000  0.000000  -35.259544899451946  3.1231418773059696  21.90918198876405  61.8223011365578  4.601399940813265  -11.976730199312513  21.136699584271025  48.666280116494406  -19.741349452301364  18.507261723818477  0.000000
0.87  0.000000  0.000000  0.000000  -35.51430539798591  3.2851205702430497  22.220488055057842  61.966642556558476  4.885461750557942  -11.794374254954448  21.243006817498205  49.068237091776524  -20.069758208961222  18.302840695563177  0.000000
0.885  0.000000  0.000000  0.000000  -35.78073354167891  3.4451943840762143  22.54032454527795  62.11950230801749  5.1518958990731685  -11.60214593119303  21.351391900616505  49.45611401147528  -20.395908758928947  18.100610862130306  0.000000
0.8999999999999999  0.000000  0.000000  0.000000  -36.05753310643006  3.60203117339302  22.86747769283324  62.27995832173428  5.401811170840495  -11.402274300923787  21.461750596339478  49.830097930370655  -20.718955735558634  17.901505127674813  0.000000
0.9149999999999999  0.000000  0.000000  0.000000  -36.34319301519984  3.754307797301124  23.200706239436204  62.446736688202  5.63678628453653  -11.197064644420527  21.573957753415748  50.18995983038011  -21.037939361687187  17.706604755678566  0.000000
0.9299999999999999  0.000000  0.000000  0.000000  -36.63609397172447  3.900664604691895  23.53845852798108  62.6185946980153  5.8582995858154705  -10.988911946184608  21.687747976553016  50.53598892926214  -21.352172425832254  17.516491782827092  0.000000
0.945  0.000000  0.000000  0.000000  -36.93493978863629  4.039992131811679  23.879427116381546  62.794324931259595  6.067732163627439  -10.779430601247666  21.803112192124583  50.86820199693998  -21.660662050231792  17.33149689228949  0.000000
0.96  0.000000  0.000000  0.000000  -37.23774793032554  4.171823870375608  24.221724803644413  62.972797613733725  6.266324972357923  -10.570190145649667  21.91942991073594  51.18710965242652  -21.962584466787035  17.15309249946307  0.000000
0.975  0.000000  0.000000  0.000000  -37.542514117258804  4.295711385123206  24.564155687053795  63.153560049126405  6.455010774960552  -10.362249205758964  22.03554584405628  51.49266303352506  -22.256740382918508  16.982444642759397  0.000000
